<svg xmlns="http://www.w3.org/2000/svg" id="a" width="333.59" height="331.03" viewBox="0 0 333.59 331.03"><path d="M332.45,158.26c-1.7-4.08-4.81-12.67-7.23-16.72-.19-.86-.99-.66-1.69-.65,.06-.44,.08-.9,.05-1.41,.29,.43,.95,.79,1.19,.13,3.72-14.41,11.94-28.2,7.09-43.71-10.05-29.21-47.49-53.17-77.97-42.97-10.95-23.26-85.76-79.89-106.72-37.17-13.23-9.54-28.89-5.52-43.13,4.67-.86,.06-1.51,.58-2-.57-4.06-2.55-9.35,5.47-9.19,8.9-9.39,3.1-13.36,12.43-11.07,21.79-9.92-.86-.46,16.99,2.14,21.07-2.54,3.86-3.44,5.27-1.25,8.98-.21,.05-.89,.22-1.11,.27-12.21-10.29-15.27,15.3,3.78,21.53-5.26,7.79,4.41,13.11,11.17,15.11-2.15,13.5,3.55,29.75,10.87,42.26-.64,.16-1.98-.25-2.16,.59-.87,.19-2.16-.57-2.86,.18-9.91,.63-19.97,1.09-29.35,2.98-9.63-14.12-17.81-28.76-25.08-44.99-2.3-3.48-6.88-20.66-10.23-20.21-.77-6.05-5.48-10.29,2.42-13.63,13.82-9.02,3.53-7.56-5.75-9.56,3.03-3.29,4.18-7.38,6.73-10.85,.57-1.56,3.26-3.42,1.53-4.85-.17-.19-.38-.58-.68-.55-3.59,1.74-7.98,2.85-11.98,4.02-1.99-2.87-3.37-15.47-7.45-13.47-2.69,3.42-1.49,9.63-3.43,13.31,.06-.27-9.39-11.42-12.01-8.99,.86,1.85,4.61,9.97,5.39,11.66-3.06-.38-5.47-2.37-8.37-3.33-.24-.41-.62-.97-1.38-1.1-.1-.34-.35-1.01-.86-.75-6.22,1,7.76,11.14,7.36,14.07-2.28,11.15-5.45,22.14-4.89,33.82-5.51-1.34,1.24,20.16,1.4,23.34,2.14,6.87,4.48,13.67,5.61,20.86,2.3,8.6,1.95,18.17,3.49,26.95,26.9,51.71,29.17,77.81,18.4,95.64-4.28,11.51-12.32,28.63-12.21,55.69,.5-.49,270.54,.94,270.45-.49-.05-15.73-.22-32.5-.45-47.86,.15-.66-.08-1.28-.7-1.59,.34-.9-.15-1.17-.9-1.51-.55-1.02-.4-3.93-1.64-4.15-1.27-2.18-1.55-7.17-4.45-7.46v-.02c37.78-5.78,50.68-70.77,49.13-109.28Zm-224.48,2.5c.09,.15,.19,.3,.28,.45-.07,.02-.15,.04-.22,.06-.01-.16-.03-.33-.06-.51Z" stroke="#000" stroke-linejoin="round" stroke-width=".5"></path><g><g><path d="M68.14,158.37h0Z" fill="#114aee"></path><path d="M59.42,143.92v0Z" fill="#114aee"></path><path d="M261.16,274.1c.41-.08,.83-.09,1.25-.09h0c1.41,.24,3.31-.43,4.38,.62-1.92-.02-3.84-.04-5.76-.06l.14-.47Z" fill="#114aee"></path><path d="M3.55,113.67c.1,.59,.19,1.17,.29,1.76,.12-.11,.2-.22,.28-.32-.51,2.43,.76,5.46,1.06,8.06,.06-.07,.11-.14,.16-.21-.36,.62,.19,1.49,.24,2.2l-.04,.02c.24,1,.48,2,.72,3.01h-.04c.38,.96,.35,2.43,.94,3.08-.06-.04-.14-.07-.22-.1,.22,.8,.45,1.59,.67,2.39h-.03c.19,.05,.34,.11,.45,.19-.11-.08-.26-.14-.45-.19,.23,.72,.46,1.44,.69,2.16-.1-.39,.1-.88,.1-1.3,0,.42-.2,.91-.1,1.3l-.07,.07,.04,.08h0c.24,.69,.47,1.37,.71,2.06h-.03c.46,.79,.47,2,1.14,2.54l-.29-.15c.03,.1,.05,.21,.08,.31h0c.81,2.3,1.33,4.75,1.78,7.19,.11-.98,.05-1.91-.28-2.85,.36,.96,.38,2.06,.26,3,.54,1.79,.89,3.62,1.36,5.43h-.04c.29,1.39,.48,2.78,.72,4.17l-.09,.05c.14,.84,.24,1.68,.37,2.51,.02-.03,.03-.06,.05-.08,.43,5.73,1.16,11.55,1.69,17.31-.19-2.09-.25-4.19-.34-6.28,.22,2.89-.09,5.85,1,8.54h-.03c.45,.91,.9,1.82,1.34,2.73v-.05c.51,.63,.82,1.63,.99,2.42,44.17,90.13,10.28,62.83,3.13,144.74H290.29c.31-15.41-.91-30.77-.11-46.24l-.47-.18c-.11,.5-.33,1.03-.39,1.52,.13-.73,.44-1.46,.5-2.21-.07,0-.14,.02-.21,.05-.27-.57-.75-1.08-.49-1.73-.07,0-.13,.02-.18,.05-.56-.6-1.42-1.13-1.73-1.85,.31,.72,1.17,1.25,1.73,1.85l.04-.44c-1.17-.62-.92-2.42-1.43-3.56-.16,0-.32-.08-.49-.11-.06-.4-.19-.77-.42-1.11l.06-.08c-1.03-1.75-.98-3.95-2.43-5.5h.01c-.57-3.04-2.71,.51-4.37,1.07,.02,.11,.05,.22,.07,.33,.55,.01,1.04-.06,1.38-.33-7.59,4.72-20.66,4.78-28.79,2.33-.14,.32-.27,.63-.4,.95-4.92-15.21-23.87-28.37-33.84-42.5l-.08,.03c-7.79-8.08-13.71-20.34-22.87-26.31-14.07,5.13-29.85,7.47-43.4,12.52,13.7,17.86,26.45,38.85,35.17,59.08-8.89-12.62-16.01-27.21-23.98-40.69-19.56-14.02-41.04-30.06-49.93-53.03l.07-.05-.03-.08c.26-.93-.45-1.43-.47-2.32l-.03,.03c-.74-1.18-.78-2.93-1.89-3.74,.19-.64-.15-1.03-.63-1.44-.05,.04-.09,.07-.14,.11,.33-.39,.11-1.38-.47-1.45-.02-.45,.16-.94-.23-1.26,.06-.11,.05-.22-.03-.32-.03,.08-.07,.15-.08,.23,.11-.27,.1-.56,.12-.85-.1-.03-.2-.05-.3-.05-.21-.62-.42-1.24-.62-1.86-.01,.54-.05,1.09,0,1.62-.06-2.22-.71-4.2-.48-6.4l-.42-.18c-.55,.72-.9,1.43-.3,2.04-.95-.9,.69-1.86,.13-2.97-.73-.14-.94-.41-.94-.73,0,.32,.21,.59,.94,.73,.68-1.06-.9-2.19-.63-3.47-.17,.01-.34,.02-.51,.03-.01,.12-.03,.23-.04,.35-.45,.05-.9,.06-1.27,.36-.51-.18-1.02-.34-1.57-.31,0,.11,0,.21,0,.32-.96,.08-2.23-.35-2.8,.56,.16-.13,.31-.37,.47-.53-8.63,.32-17.15,1.66-25.72,2.4l.16-.05c-.81-.28-1.54-.04-2.05,.63v-.02c-.96,.07-1.75-.35-2.16-1.23,.1,.24,.27,.43,.46,.61l.06-.34h0c-.09-.03-.18-.05-.27-.06,.01-.5-.26-.77-.68-1h.01c-.6-.87-1.1-1.82-1.74-2.66h.01l-.32-.37h.04c-.46-.8-.91-1.57-1.41-2.32l.02,.02c-.27-.34-.39-.69-.69-1.03l.02,.02c-.6-.89-1.11-1.82-1.69-2.72h.03c-.39-.54-.64-1.13-1.04-1.66h.01c-.26-.34-.36-.69-.67-1.03h.03c-.34-.56-.57-1.21-1.05-1.67l.03,.02-.36-.68h.01l-.65-1.03h.02c-.27-.08-.49-.19-.68-.31,.19,.13,.41,.23,.68,.31-.46-.78-.93-1.55-1.39-2.33h.02c-.33-.61-.63-1.24-1.03-1.81l.04-.09c-.14-.14-.25-.31-.37-.46h.03c-.91-1.67-1.81-3.35-2.72-5.03h.02c-1.94-3.74-4.12-7.49-5.67-11.32-1.07-1.52-1.52-3.27-2.39-4.84h.03c-1.23-2.8-2.57-5.65-3.75-8.4h.05c-.7-1.64-1.91-3.04-2.24-4.84,.27,1.29,.9,2.41,1.57,3.53-.73-3-2.48-5.52-3.31-8.45-.35-.67-.72-1.34-1.08-2.01h.04l-.68-1.36,.03-.02c-.45-1.19-.91-.72-1.37-.01-1.07-.02-2.12,.5-3.17,.73v-.03c-.66,.27-1.33,.49-2,.72v-.02c-2.94,.97-5.94,1.76-8.89,2.7l-.06-.06c-.37,.15-.77,.24-1.15,.37,.18,.2,.34,.32,.48,.37-.14-.05-.3-.17-.48-.37-.46,.07-.9,.21-1.34,.36l.03-.02c-.79,.23-1.58,.46-2.37,.69l-.02-.03c-2.49,.74-4.92,1.28-7.39,2.03v-.03l-2.8,.73c.57-.15,1.26,.18,1.86,.11-4.15-.04-7.87,.06-6.44,5.3Zm12.47-7.46c.47-.06,1.04,.2,1.51,.14-.47,.06-1.04-.2-1.51-.14Zm-8.99,23.07c.01,.49-.19,1.04-.15,1.52-.05-.48,.16-1.03,.15-1.52Zm-1.42-20.37c.37-.03,.78,.09,1.17,.12-.39-.03-.8-.16-1.17-.12Z" fill="#114aee"></path><path d="M84.27,163.04c.77,.05,1.67-.35,2.35,.07-.95,.09-1.9,.18-2.86,.27,.17-.11,.34-.22,.51-.34Z" fill="#114aee"></path><path d="M289.65,281.65c0,.25-.02,.5-.03,.75l-.6-1.13c.21,.13,.42,.26,.62,.39Z" fill="#114aee"></path></g><g><path d="M98.1,118.3c28.21,8.13,46.47,31.34,65.5,52.07,1.89,1.17,1.99,.86,1.18,3.41-6.5-6.31-13.35-14-21.52-17.72,2.55,6.22,7.34,11.45,9.92,17.66-26.06-5.22-22.11-3.17-4.56,11.74-4.46-.35-8.85-1.71-13.51-.19,7,6.25,17,10.33,17.1,20.96-25.99-18.29-59.06-55.81-54.11-87.93Z" fill="#5b8c38"></path><path d="M81.26,64.15c4.64,11.59,27.03,33.54,40.23,30.51l.03,.66c-4.15,.68-8.3,1.36-12.45,2.04l-.2-.81c1.05-.3,2.11-.59,3.64-1.02-11.07-5.74-20.6-12.83-27.61-23.22-.98,2.13-2.96,3.34-2.43,5.37,2.98,4.72,3.76,10.61,9.53,12.78,19.17,10.23,39.52,19.84,56.12,34.49,16.4,21.42,40.8,32.93,64.22,44.94,6.72,3.28,14.72,11.18,11.4,19.28-2.97,4.86-6.61,14.02-13.74,12.23-9.82-2.07-17.46-9.69-26.24-13.3,3,5.87,7.48,11,10.41,16.98,3.64-5.14,19.66,21.05,22.93,24.44l-.03,.06c8.16,7.95,15.56,17.1,23.45,25.43,13.84,4.89,37.36,15.38,51.41,9.81,30.85-17.8,51.11-92.39,32.21-122.77h-.67c-2.1,5.88-4.17,11.71-4.5,17.96l-.58,.03c-1.43-8.12,5.84-15.8,3.09-23.59l.48-.32c.53,.55,1.07,1.1,1.96,2.02,34.25-65.04-54.48-112.58-102.19-68.39,28.62,13.02,62.68,24.35,80.95,51.4l-.38,.31c-16.48-21.05-40.84-32.88-65.11-43.21-5.32-1.74-14.59-10.14-19.61-5.71-2.6,1.87-28.27,7.18-25.12,10.25,3.14,.51,7.89-.62,9.92,1.92l.51-.64,.02,.02-.02-.02c22.43,5.81,43.48,16.94,63.08,29.19,9,10.41,18.39,21.53,29.63,29.16-1.61,.85-3.45-1.36-5.07-1.8-5.02-1.17-10.7-.07-15.59,1.32-30.66,7.51-73.07-5.27-92.31-30.79-.85-1.19-2.74-.5-3.92-.18,2.08,23.94,44.71,43.41,64.86,52.5-.06,.22-.12,.44-.18,.66-20.8-7.26-63.96-29.13-65.94-53.34-11.44-1.58-23.74-1.64-34.11-7.26-23.24-14.96-49.69-25.13-61.76-51.84-7.59,.16,.02,8.61-.31,12.42Zm92.6,60.86c7.06,8.04,12.55,17.12,20.4,24.22-4.36,.35-10.32-10.75-13.2-14.03-2.45-2.52-7.01-6.84-7.2-10.18Z" fill="#5b8c38"></path><path d="M153.87,208.43c-3.49-15.71-5.39-12.66-16.34-22.74,4.7-.58,8.93,.92,13.58,.77-5.3-4.96-11.29-8.49-15.49-14.12,6.43-1.65,13.17,2.93,19.26,2.22-3.18-5.3-6.35-10.6-9.53-15.89l.44-.43c7.23,5.13,13.71,11.27,19.86,17.53,.13-7.08,1.96-13.93,4.85-20.44l.47-.09c4.07,7.59,5.98,16.09,5.45,24.44,4.56-2.78,7.51-6.49,12.73-8.21,.8,6.08-2.65,11.01-5.47,16.04-1.06,.67-.94,1.36-.28,2.34,3.18,5.16,7.18,9.92,9.47,15.57-12.47,2.86-24.43,7.51-37.03,10-.65-2.33-1.29-4.67-1.97-6.99Z" fill="#5b8c38"></path><path d="M259.58,263.28c7.52,1.7,14.7,4.47,22.54,4.39-5.89,8.12-18.86,5.82-27.77,4.62h0c-3.9-5.09-7.97-10.07-11.96-15.11,6.03,1.33,11.19,4.81,17.2,6.1Z" fill="#5b8c38"></path><path d="M108.33,162.41c1.64,11.46,6.21,23.22,12.86,32.63h0c.2,1.53,.99,2.66,2.35,3.39l-.02,.03c.35,1.67,2.63,2.11,3.38,3.99h0c3.79,4.31,7.52,9.04,12.09,12.45h0c2.79,2.62,5.06,6.4,8.73,7.75v.05c4.42,4.34,9.59,8.98,15.17,11.27-3.33-6.06-9.35-10.95-12.76-16.77-.1,.2-.19,.41-.29,.61,.25-1.25,1.15-1.12,1.99-1.62-.11,.1-.22,.2-.32,.29,.44-.09,.89-.18,1.33-.28h0c.63,.03,1.24-.08,1.86-.17,.08-.95-.52-1.96-.7-2.93h0c-.28-1.1-.56-2.2-.84-3.3-.08,.11-.2,.22-.29,.32,.1-.11,.21-.22,.29-.32-2.64-4.19-6.93-2.48-9.65-7.79h0c-13.23-11.57-25.03-26.47-35.18-39.6Zm21.43,35.39h0c.03-.07,.04-.17,.08-.23-.03,.06-.05,.16-.08,.23Zm-1.6,1.01c-.07,.03-.15,.09-.22,.11,.06-.02,.15-.08,.22-.11h0Zm-.4-.16s.1-.05,.15-.08c-.05,.02-.1,.06-.15,.08h0Zm3.17-7.8c-.07,.25-.2,.4-.47,.4,.28,0,.41-.15,.47-.4Zm10.38,23.15h0s-.04,.07-.06,.1c.02-.03,.04-.07,.06-.1Zm5.98,4.31l1.17-.1c-.39,.03-.78,.07-1.17,.1Zm3.18,.57c-.22-.34-.45-.67-.67-1.01l.67,1.01Zm-2.21,3.27c.09-.09,.19-.18,.28-.27-.1,.09-.19,.18-.28,.27Zm-.55-3.55c.41,.19,.57,.57,.75,.96-.18-.39-.34-.77-.75-.96Z" fill="#5b8c38"></path><path d="M119.52,29.74c24.4,14.69,47.21,32.89,61.76,57.68-17.43-4.26-26.62-20.28-39.13-31.59-14.74-10.55-29.91-24.24-48.15-27.34-.42-2.39,5.95-11.11,7.56-6.88,8.04,.06,10.94,4.4,17.96,8.12Z" fill="#5b8c38"></path><path d="M239.83,58.08c-6.91,1.75-13.35,5.43-18.58,10.2-1.09,.92-1.81,.69-2.55-.32-20.27-20.94-47.76-32.74-70.2-51.15,18.5-41.67,90.84,11,104.13,36.41-4.4,1.91-8.39,3.25-12.8,4.87Z" fill="#5b8c38"></path><path d="M149.05,18.72c22.76,17.4,48.33,30.89,69.6,50.08,1.8,2.51-3.23,3.08-4.63,4.53-2.54-.26-28.83,7.03-24.26,10.44-.46,.43-.99,.8-1.34,1.33v-.02c-6.13,6.86-10.47-5.35-13.27-9.72-17.94-24.09-43.56-40.32-69.29-55.11,13.4-8.55,30.37-13.41,43.18-1.52Z" fill="#5b8c38"></path><path d="M1.87,62.31c-.15-.19-.3-.38-.46-.57l.28-.13c3.07,2.48,7.61,4.71,12.72,5.24-1.93-4.16-3.69-7.97-5.45-11.77,4.36,2.3,7.37,5.79,10.07,9.66,3.45-3.26,1.66-10.51,4.21-14.3,.3,.01,.59,.02,.89,.03v.02c.11,.33,.23,.67,.35,1h-.02c1.53,4.27,3.08,8.31,4.77,12.89,3.91-1.29,8.74-2.26,12.51-4.13l.26,.32c-.35,.58-.71,1.15-1.06,1.73h0c-3.23,4.35-4.67,9.82-9.01,13.62,4.7,.81,8.97,1.55,13.72,2.37-10.08,11.65-14.43,3.93-9.12,20.23-10.14,3.48-20.49,5.84-31.05,8.99-.46-11.21,2.68-22.11,4.9-33.02,.35-2.48-4.71-6.53-6.15-8.84l.13-.23c-1.26-.34-1.68-2.08-2.48-3.08l.04-.04-.04,.04Z" fill="#5b8c38"></path><path d="M84.61,83.48c.06,.07-.22,.42-.34,.65-.58-.76-1.17-1.53-1.75-2.29,.14-.03,.27-.07,.41-.1,.57,.57,1.16,1.13,1.68,1.74Z" fill="#5b8c38"></path><polygon points="144.64 157.27 144.53 157.23 144.63 157.16 144.64 157.27" fill="#5b8c38"></polygon><polygon points="144.99 157.84 144.95 157.95 144.89 157.85 144.99 157.84" fill="#5b8c38"></polygon></g><g><path d="M82.11,48.51c-.66-8.48,3.96-18,13.24-19.05-9.58,14.21-9.19,25.81,6.3,34.99,16.75,11.83,29.59,10.9,36.78-9.63,15.45,10.97,24.53,31.14,45,34.08-1.95,6.76-2.64,13.16-1.7,20.15-1.37,.18-2.77,1.58-3.53,0-26.99,4.03-89.58-34.04-96.09-60.53Z" fill="#f3f3f3"></path><path d="M102.88,55.77c-9.01-1.6-1.21-10.7-.38-7.24,.57,1.36,2.93,1.6,2.94,3.37,.29,2.06,.28,4.38-2.56,3.87Z" fill="#f3f3f3"></path><path d="M122.55,46.72c-.33,3.28-.23,3.24-6.02,1.94,2.87-4.02,3.51-3.4,6.02-2.09l-.06,.08,.06,.08Z" fill="#f3f3f3"></path><path d="M183.31,95.25c2.92,2.05,2.94,6.46,6.29,8.57,2.76,1.86,4.86,4.77,7.7,6.44,7.23,3.45,22.79,17.39,30.36,11.78,6.05-5.86,14.25-13.32,11.53-22.45,23.71,8.51,32.59,23.48,49.52,39.8-6.79-.7-12.58,1.89-18.95,3.37-10.96,1.6-21.65-1.36-32.57-1.92l.11-1.9c-9.17,2.59-61.06-21.48-52.18-31.41-.97-.1-1.35,.15-2.37,.64-1.05-4.54-.92-8.54,.56-12.91Z" fill="#f3f3f3"></path><path d="M226.82,108.72c-2.12-1.18-6.33-.86-7.2-3.17,.66-6.31,17.81-2.04,7.2,3.17Z" fill="#f3f3f3"></path><path d="M200.86,105.82c-8.02,.87,.37-10.48,2.6-3.14-.03,1.68-1.32,3.34-2.6,3.14Z" fill="#f3f3f3"></path><path d="M219.94,118.01c-1.02,.1-3.46-1.01-4.17-1.71,.67-2.51,2.71-2.68,5.35-.59-.4,.85-.63,2.15-1.17,2.3Z" fill="#f3f3f3"></path></g><g><path d="M85.56,86.85h0Z" fill="#9d6652"></path><path d="M74.45,80.97c4.75-5.71,9.38,6.58,13.93,8.26l.07-.06c24.37,14.6,52.1,25.73,69.89,49.07,17.08,16.65,40.48,23.79,59.68,37.08,9.28,6.54,4.44,19.27-3.78,24.24-7.52,2.08-23.82-8.71-29.08-13.82,1.72-2.75,3.44-5.5,5.22-8.35,1.13,.57,2.52,1.27,3.92,1.98l.4-.71c-1.67-1.01-3.18-2.23-4.69-3.48,1.48-4.72-1.84-5.6-4.91-2.56-8.72-3.53-10.23-11.25-14.09-18.97-1.52,1.2-1.97,2.82-2.36,4.47-11.2-12.4-19.94-27.79-35.93-34.99-11-6.3-24.02-7.52-34.48-15.31-9.08-6.1-32.41-12.28-23.78-26.86Z" fill="#9d6652"></path><path d="M85.64,103.62c2.95-2.65,17.68,8.99,22.04,10.68,7.98,5.18,17.78,5.42,25.73,10.51,7.19,4.65,14.66,9.58,19.69,16.62,6.27,10.88,18.04,14.47,12.21,28.06-17.54-14.69-29.21-36.45-51.32-45.31-7.45-6.75-32.77-8.16-28.35-20.56Z" fill="#9d6652"></path><path d="M177.55,177.89c-.27-3.06-.54-6.07-.81-9.07,2.28,1.56,4.56,3.12,6.83,4.68-2.03,1.48-4.07,2.96-6.03,4.39Z" fill="#9d6652"></path></g></g><line x1="106.86" y1="121" x2="106.96" y2="122.06"></line></svg>